<mxfile host="Electron" modified="2024-01-06T12:48:56.386Z" agent="Mozilla/5.0 (Macintosh; Intel Mac OS X 10_15_7) AppleWebKit/537.36 (KHTML, like Gecko) draw.io/22.1.16 Chrome/120.0.6099.109 Electron/28.1.0 Safari/537.36" etag="CgBIJ2MmVlNFMFWr45eX" version="22.1.16" type="device">
  <diagram name="Page-1" id="BM9KBNLmi8wGOLRG7XOS">
    <mxGraphModel dx="1434" dy="879" grid="1" gridSize="10" guides="1" tooltips="1" connect="1" arrows="1" fold="1" page="1" pageScale="1" pageWidth="827" pageHeight="1169" math="0" shadow="0">
      <root>
        <mxCell id="0" />
        <mxCell id="1" parent="0" />
        <mxCell id="tfHJQHFD1TpQ0VCaRhFc-2" value="Host" style="rounded=0;whiteSpace=wrap;html=1;align=left;verticalAlign=top;enumerate=1;" parent="1" vertex="1">
          <mxGeometry x="30" y="30" width="460" height="470" as="geometry" />
        </mxCell>
        <mxCell id="tfHJQHFD1TpQ0VCaRhFc-12" value="make record" style="whiteSpace=wrap;html=1;shape=mxgraph.basic.document;enumerate=1;" parent="1" vertex="1">
          <mxGeometry x="85" y="90" width="60" height="60" as="geometry" />
        </mxCell>
        <mxCell id="_bwbsy2TYnxsbs1w3jjb-2" value="Docker&lt;br&gt;client" style="rounded=0;whiteSpace=wrap;html=1;enumerate=1;" vertex="1" parent="1">
          <mxGeometry x="87.5" y="180" width="55" height="35" as="geometry" />
        </mxCell>
        <mxCell id="tfHJQHFD1TpQ0VCaRhFc-25" value="Docker&lt;br&gt;daemon" style="whiteSpace=wrap;html=1;aspect=fixed;enumerate=1;" parent="1" vertex="1">
          <mxGeometry x="85" y="310" width="60" height="60" as="geometry" />
        </mxCell>
        <mxCell id="tfHJQHFD1TpQ0VCaRhFc-5" value="3musketeers-vhs:local&lt;br&gt;container" style="ellipse;whiteSpace=wrap;html=1;aspect=fixed;horizontal=1;verticalAlign=top;enumerate=1;" parent="1" vertex="1">
          <mxGeometry x="230" y="60" width="170" height="170" as="geometry" />
        </mxCell>
        <mxCell id="tfHJQHFD1TpQ0VCaRhFc-3" value="vhs&lt;br&gt;" style="sketch=0;pointerEvents=1;shadow=0;dashed=0;html=1;strokeColor=none;fillColor=#505050;labelPosition=center;verticalLabelPosition=bottom;verticalAlign=top;outlineConnect=0;align=center;shape=mxgraph.office.concepts.folder;enumerate=1;" parent="1" vertex="1">
          <mxGeometry x="289.5" y="290" width="50" height="45" as="geometry" />
        </mxCell>
        <mxCell id="tfHJQHFD1TpQ0VCaRhFc-13" value="" style="edgeStyle=none;rounded=0;orthogonalLoop=1;jettySize=auto;html=1;entryX=0;entryY=0.5;entryDx=0;entryDy=0;startArrow=none;startFill=0;exitX=0.5;exitY=0;exitDx=0;exitDy=0;" parent="1" source="tfHJQHFD1TpQ0VCaRhFc-25" target="tfHJQHFD1TpQ0VCaRhFc-5" edge="1">
          <mxGeometry relative="1" as="geometry">
            <mxPoint x="134.56431535269712" y="250" as="sourcePoint" />
          </mxGeometry>
        </mxCell>
        <mxCell id="tfHJQHFD1TpQ0VCaRhFc-20" value="&lt;br&gt;" style="edgeStyle=none;rounded=0;orthogonalLoop=1;jettySize=auto;html=1;entryX=0;entryY=0.5;entryDx=0;entryDy=0;exitX=1;exitY=1;exitDx=0;exitDy=0;" parent="1" source="tfHJQHFD1TpQ0VCaRhFc-25" target="tfHJQHFD1TpQ0VCaRhFc-16" edge="1">
          <mxGeometry relative="1" as="geometry">
            <mxPoint x="143.4449760765549" y="299.20000000000005" as="sourcePoint" />
          </mxGeometry>
        </mxCell>
        <mxCell id="tfHJQHFD1TpQ0VCaRhFc-15" style="edgeStyle=none;rounded=0;orthogonalLoop=1;jettySize=auto;html=1;dashed=1;" parent="1" source="tfHJQHFD1TpQ0VCaRhFc-5" target="tfHJQHFD1TpQ0VCaRhFc-3" edge="1">
          <mxGeometry relative="1" as="geometry" />
        </mxCell>
        <mxCell id="_bwbsy2TYnxsbs1w3jjb-3" style="edgeStyle=orthogonalEdgeStyle;rounded=0;orthogonalLoop=1;jettySize=auto;html=1;entryX=0.5;entryY=0;entryDx=0;entryDy=0;" edge="1" parent="1" source="tfHJQHFD1TpQ0VCaRhFc-12" target="_bwbsy2TYnxsbs1w3jjb-2">
          <mxGeometry relative="1" as="geometry" />
        </mxCell>
        <mxCell id="tfHJQHFD1TpQ0VCaRhFc-14" style="edgeStyle=none;rounded=0;orthogonalLoop=1;jettySize=auto;html=1;exitX=1;exitY=1;exitDx=0;exitDy=0;" parent="1" source="tfHJQHFD1TpQ0VCaRhFc-2" target="tfHJQHFD1TpQ0VCaRhFc-2" edge="1">
          <mxGeometry relative="1" as="geometry" />
        </mxCell>
        <mxCell id="tfHJQHFD1TpQ0VCaRhFc-24" style="edgeStyle=none;rounded=0;orthogonalLoop=1;jettySize=auto;html=1;dashed=1;" parent="1" source="tfHJQHFD1TpQ0VCaRhFc-16" target="tfHJQHFD1TpQ0VCaRhFc-21" edge="1">
          <mxGeometry relative="1" as="geometry" />
        </mxCell>
        <mxCell id="tfHJQHFD1TpQ0VCaRhFc-18" value="make run" style="whiteSpace=wrap;html=1;shape=mxgraph.basic.document;enumerate=1;" parent="1" vertex="1">
          <mxGeometry x="285" y="100" width="60" height="50" as="geometry" />
        </mxCell>
        <mxCell id="_bwbsy2TYnxsbs1w3jjb-5" value="Docker&lt;br&gt;client" style="rounded=0;whiteSpace=wrap;html=1;enumerate=1;" vertex="1" parent="1">
          <mxGeometry x="287" y="180" width="55" height="35" as="geometry" />
        </mxCell>
        <mxCell id="tfHJQHFD1TpQ0VCaRhFc-16" value="golang:alpine&lt;br&gt;container" style="ellipse;whiteSpace=wrap;html=1;aspect=fixed;enumerate=1;" parent="1" vertex="1">
          <mxGeometry x="374" y="400" width="80" height="80" as="geometry" />
        </mxCell>
        <mxCell id="tfHJQHFD1TpQ0VCaRhFc-19" value="" style="edgeStyle=none;rounded=0;orthogonalLoop=1;jettySize=auto;html=1;entryX=1;entryY=0.5;entryDx=0;entryDy=0;exitX=0.5;exitY=1;exitDx=0;exitDy=0;" parent="1" source="_bwbsy2TYnxsbs1w3jjb-5" target="tfHJQHFD1TpQ0VCaRhFc-25" edge="1">
          <mxGeometry relative="1" as="geometry">
            <mxPoint x="145" y="255.20540540540537" as="targetPoint" />
          </mxGeometry>
        </mxCell>
        <mxCell id="_bwbsy2TYnxsbs1w3jjb-6" style="edgeStyle=orthogonalEdgeStyle;rounded=0;orthogonalLoop=1;jettySize=auto;html=1;entryX=0.5;entryY=0;entryDx=0;entryDy=0;" edge="1" parent="1" source="tfHJQHFD1TpQ0VCaRhFc-18" target="_bwbsy2TYnxsbs1w3jjb-5">
          <mxGeometry relative="1" as="geometry" />
        </mxCell>
        <mxCell id="tfHJQHFD1TpQ0VCaRhFc-21" value="vhs/src" style="sketch=0;pointerEvents=1;shadow=0;dashed=0;html=1;strokeColor=none;fillColor=#505050;labelPosition=center;verticalLabelPosition=bottom;verticalAlign=top;outlineConnect=0;align=center;shape=mxgraph.office.concepts.folder;enumerate=1;" parent="1" vertex="1">
          <mxGeometry x="389" y="290" width="50" height="45" as="geometry" />
        </mxCell>
        <mxCell id="_bwbsy2TYnxsbs1w3jjb-4" style="edgeStyle=orthogonalEdgeStyle;rounded=0;orthogonalLoop=1;jettySize=auto;html=1;entryX=0.5;entryY=0;entryDx=0;entryDy=0;" edge="1" parent="1" source="_bwbsy2TYnxsbs1w3jjb-2" target="tfHJQHFD1TpQ0VCaRhFc-25">
          <mxGeometry relative="1" as="geometry" />
        </mxCell>
      </root>
    </mxGraphModel>
  </diagram>
</mxfile>
